
		<svg xmlns="http://www.w3.org/2000/svg" xmlns:xlink="http://www.w3.org/1999/xlink" version="1.1" width="3276.4976958525344" height="1382.4884792626726">
			
			<g transform="scale(13.824884792626728) translate(10, 10)">
				<defs id="SvgjsDefs1001"/>
				<g id="SvgjsG1007" featureKey="root" fill="#000" transform="matrix(1,0,0,1,NaN,NaN)"/>
					<g id="SvgjsG1008" featureKey="symbol1" fill="#bdbafa" transform="matrix(0.7155123014549752,0,0,0.7155123014549752,9.2243846713641,4.597309931127075)">
						<path d="M49.914,10.346L1.084,32.984v0.211l48.83,22.639l49.002-22.716v-0.057L49.914,10.346z M49.914,47.566L18.688,33.09  l31.227-14.477l31.23,14.477L49.914,47.566z M1.084,59.053v8.248l48.83,22.354l49.002-22.43v-8.248L49.914,81.355L1.084,59.053z   M1.084,42.327v8.248l48.83,22.351l49.002-22.427V42.25L49.914,64.627L1.084,42.327z"/>
					</g>
					<g id="SvgjsG1009" featureKey="text1" fill="#000" transform="matrix(2.7700836098666475,0,0,2.7700836098666475,95.56786780926792,-10.498625581582932)">
						<path d="M12.16 10.68 l-7.52 0 l0 3.72 l7.42 0 l0 2.52 l-7.42 0 l0 7.08 l-3.04 0 l0 -15.98 l10.56 0 l0 2.66 z M24.259999999999998 12.42 l-5.2 13.74 q-0.58 1.54 -1.52 2.22 t-2.24 0.68 q-0.2 0 -0.44 -0.03 t-0.46 -0.09 l-0.96 -2.68 q0.34 0.16 0.7 0.25 t0.68 0.09 q0.68 0 1.24 -0.31 t0.86 -1.15 l0.4 -1.16 l-4.46 -11.56 l3.14 0 l2.66 7.44 l2.5 -7.44 l3.1 0 z M30.439999999999998 23.94 q-0.34 0.16 -0.77 0.26 t-0.89 0.1 q-0.64 0 -1.23 -0.17 t-1.03 -0.55 t-0.7 -0.99 t-0.26 -1.47 l0 -13.72 l2.94 0 l0 13.22 q0 0.72 0.29 0.99 t0.69 0.27 q0.5 0 0.96 -0.3 l0 2.36 z M43.78 18.22 q0 1.3 -0.48 2.41 t-1.32 1.92 t-1.97 1.28 t-2.41 0.47 t-2.4 -0.47 t-1.96 -1.29 t-1.32 -1.93 t-0.48 -2.39 q0 -1.26 0.49 -2.37 t1.33 -1.94 t1.96 -1.3 t2.38 -0.47 q1.28 0 2.41 0.47 t1.97 1.28 t1.32 1.93 t0.48 2.4 z M40.9 18.22 q0 -0.74 -0.26 -1.38 t-0.71 -1.12 t-1.05 -0.75 t-1.28 -0.27 t-1.28 0.27 t-1.05 0.75 t-0.71 1.12 t-0.26 1.38 t0.26 1.38 t0.71 1.12 t1.05 0.75 t1.28 0.27 t1.28 -0.27 t1.05 -0.75 t0.71 -1.12 t0.26 -1.38 z"/>
					</g>
			</g>
		</svg>
	